# This file uses centimeters as units for non-parametric coordinates.

v 0.009046 0.631707 0.092980
v 0.039591 0.565489 -0.128318
v -0.131447 0.694662 -0.067913
v -0.210621 0.554344 0.085809
v -0.180077 0.488126 -0.135489
v -0.032771 0.668643 -0.133245
v 0.069814 0.614621 -0.016184
v -0.054369 0.715466 0.023236
v -0.209698 0.660762 0.018166
v -0.107113 0.606740 0.135227
v -0.188100 0.613939 -0.138315
v -0.063917 0.513094 -0.177736
v -0.240844 0.505213 -0.026325
vt 0.500000 0.500000
vt 0.750000 0.500000
vt 0.500000 1.000000
vt 0.250000 0.500000
vt 1.000000 0.500000
vt 0.750000 0.750000
vt 0.625000 0.500000
vt 0.500000 0.750000
vt 0.250000 0.750000
vt 0.375000 0.500000
vt 1.000000 0.750000
vt 0.875000 0.500000
vt 0.125000 0.500000
vt 1.125000 0.500000
vt 1.250000 0.750000
vn 0.750745 0.506384 -0.424213
vn 0.538770 0.797536 -0.271408
vn 0.678413 0.724296 -0.123090
vn 0.069152 0.958318 -0.277209
vn 0.512094 0.855368 -0.078137
vn 0.657040 0.709529 0.254690
vn -0.333384 0.940388 0.067274
vn -0.391334 0.756107 0.524556
vn -0.199487 0.823672 0.530819
vn -0.559645 0.448016 0.697194
vn -0.262592 0.682381 0.682203
vn 0.114258 0.685352 0.719192
vn -0.333419 -0.042420 -0.941824
vn -0.190926 0.321641 -0.927413
vn -0.032846 0.184313 -0.982319
vn -0.235105 0.727328 -0.644763
vn 0.000922 0.389206 -0.921150
vn 0.340484 0.194916 -0.919825
vn -0.876201 -0.066597 -0.477322
vn -0.973851 0.142399 -0.177025
vn -0.902506 0.289945 -0.318457
vn -0.969907 0.136548 0.201581
vn -0.929182 0.347777 -0.125186
vn -0.637641 0.709398 -0.300281
f 2/2/1 6/6/2 7/7/3
f 6/6/2 3/3/4 8/8/5
f 6/6/2 8/8/5 7/7/3
f 7/7/3 8/8/5 1/1/6
f 3/3/7 9/9/8 8/8/9
f 9/9/8 4/4/10 10/10/11
f 9/9/8 10/10/11 8/8/9
f 8/8/9 10/10/11 1/1/12
f 5/5/13 11/11/14 12/12/15
f 11/11/14 3/3/16 6/6/17
f 11/11/14 6/6/17 12/12/15
f 12/12/15 6/6/17 2/2/18
f 5/5/19 13/14/20 11/11/21
f 13/13/20 4/4/22 9/9/23
f 13/14/20 9/15/23 11/11/21
f 11/11/21 9/15/23 3/3/24
