# This file uses centimeters as units for non-parametric coordinates.

v 0.022329 0.017189 -0.068720
v -0.058457 0.017189 -0.042471
v -0.058457 0.017189 0.042471
v 0.022329 0.017189 0.068720
v 0.072257 0.017189 0.000000
v 0.022329 0.309675 -0.068720
v -0.058457 0.309675 -0.042471
v -0.058457 0.309675 0.042471
v 0.022329 0.309675 0.068720
v 0.072257 0.309675 0.000000
v -0.063248 0.587339 -0.077565
v -0.144522 0.611525 -0.082551
v -0.171351 0.629743 -0.004042
v -0.106658 0.616817 0.049465
v -0.039847 0.590610 0.004025
v 0.340030 0.462899 0.070563
v 0.279308 0.378685 -0.034471
v 0.049457 0.298310 -0.051259
v 0.326889 0.475925 0.069374
v 0.252843 0.404920 -0.036865
v 0.041260 0.315677 -0.050103
v 0.290976 0.450842 0.191520
v 0.180518 0.354405 0.209129
v 0.003996 0.289651 0.076638
v 0.304118 0.437816 0.192709
v 0.206984 0.328170 0.211523
v 0.012194 0.272283 0.075482
vt 0.375000 0.312500
vt 0.425000 0.312500
vt 0.475000 0.312500
vt 0.525000 0.312500
vt 0.575000 0.312500
vt 0.625000 0.312500
vt 0.375000 0.688440
vt 0.425000 0.688440
vt 0.475000 0.688440
vt 0.525000 0.688440
vt 0.575000 0.688440
vt 0.625000 0.688440
vt 0.548284 0.695147
vt 0.373591 0.751909
vt 0.373591 0.935591
vt 0.548284 0.992353
vt 0.656250 0.843750
vt 0.548284 0.992353
vt 0.373591 0.935591
vt 0.373591 0.751909
vt 0.548284 0.695147
vt 0.656250 0.843750
vt 0.375000 0.000000
vt 0.500000 0.000000
vt 0.500000 0.250000
vt 0.375000 0.250000
vt 0.625000 0.000000
vt 0.625000 0.250000
vt 0.500000 0.500000
vt 0.375000 0.500000
vt 0.625000 0.500000
vt 0.500000 0.750000
vt 0.375000 0.750000
vt 0.625000 0.750000
vt 0.500000 1.000000
vt 0.375000 1.000000
vt 0.625000 1.000000
vt 0.125000 0.000000
vt 0.125000 0.250000
vn -0.309017 0.000000 -0.951057
vn -0.309017 0.000000 -0.951057
vn -0.308548 -0.055073 -0.949613
vn -0.285731 -0.065445 -0.956072
vn -1.000000 0.000000 -0.000000
vn -1.000000 0.000000 -0.000000
vn -0.988886 -0.148673 -0.000000
vn -0.989038 -0.146126 -0.021220
vn -0.309017 0.000000 0.951057
vn -0.309017 0.000000 0.951057
vn -0.333767 -0.043221 0.941664
vn -0.308870 -0.030848 0.950604
vn 0.809017 0.000000 0.587785
vn 0.809017 0.000000 0.587785
vn 0.789054 0.160733 0.592924
vn 0.801026 0.140207 0.581979
vn 0.809017 0.000000 -0.587785
vn 0.809017 0.000000 -0.587785
vn 0.800004 0.148856 -0.581237
vn 0.813513 0.167326 -0.556956
vn -0.023376 -0.125753 -0.991786
vn 0.023666 -0.124953 -0.991880
vn -0.917966 -0.343729 -0.197959
vn -0.907323 -0.353178 -0.228099
vn -0.609723 -0.113547 0.784440
vn -0.646809 -0.118660 0.753364
vn 0.637767 0.304109 0.707652
vn 0.614394 0.303673 0.728219
vn 0.901068 0.284236 -0.327546
vn 0.921164 0.275139 -0.275237
vn 0.537295 0.478666 -0.694401
vn 0.313605 0.232353 -0.920687
vn 0.537298 0.478664 -0.694400
vn 0.251157 0.168728 -0.953127
vn 0.036013 0.065933 -0.997174
vn 0.028653 0.079869 -0.996394
vn -0.660787 0.749487 -0.040370
vn -0.473000 0.880077 0.041659
vn -0.660787 0.749487 -0.040370
vn -0.501114 0.864852 0.030266
vn -0.391476 0.917267 0.073265
vn -0.391476 0.917267 0.073264
vn 0.041992 0.132719 0.990264
vn -0.306682 -0.222579 0.925421
vn 0.041992 0.132718 0.990264
vn -0.233432 -0.147793 0.961076
vn -0.503406 -0.291761 0.813301
vn -0.496089 -0.305726 0.812667
vn 0.753057 -0.652112 0.087491
vn 0.459697 -0.886834 -0.046958
vn 0.753058 -0.652111 0.087493
vn 0.503254 -0.863639 -0.029388
vn 0.334737 -0.937599 -0.094122
vn 0.334737 -0.937599 -0.094122
vn 0.648924 0.684872 0.331432
vn 0.648929 0.684868 0.331431
vn 0.648925 0.684872 0.331432
vn 0.648930 0.684867 0.331431
f 1/1/1 2/2/2 6/7/3
f 6/7/3 2/2/2 7/8/4
f 2/2/5 3/3/6 7/8/7
f 7/8/7 3/3/6 8/9/8
f 3/3/9 4/4/10 8/9/11
f 8/9/11 4/4/10 9/10/12
f 4/4/13 5/5/14 9/10/15
f 9/10/15 5/5/14 10/11/16
f 5/5/17 1/6/18 10/11/19
f 10/11/19 1/6/18 6/12/20
f 6/16/3 7/15/4 11/18/21
f 11/18/21 7/15/4 12/19/22
f 7/15/7 8/14/8 12/19/23
f 12/19/23 8/14/8 13/20/24
f 9/13/12 14/21/25 8/14/11
f 8/14/11 14/21/25 13/20/26
f 10/17/16 15/22/27 9/13/15
f 9/13/15 15/22/27 14/21/28
f 10/17/19 6/16/20 15/22/29
f 15/22/29 6/16/20 11/18/30
f 16/23/31 17/24/32 19/26/33
f 19/26/33 17/24/32 20/25/34
f 17/24/32 18/27/35 20/25/34
f 20/25/34 18/27/35 21/28/36
f 19/26/37 20/25/38 22/30/39
f 22/30/39 20/25/38 23/29/40
f 20/25/38 21/28/41 23/29/40
f 23/29/40 21/28/41 24/31/42
f 22/30/43 23/29/44 25/33/45
f 25/33/45 23/29/44 26/32/46
f 24/31/47 27/34/48 23/29/44
f 23/29/44 27/34/48 26/32/46
f 25/33/49 26/32/50 16/36/51
f 16/36/51 26/32/50 17/35/52
f 26/32/50 27/34/53 17/35/52
f 17/35/52 27/34/53 18/37/54
f 25/38/55 16/23/56 22/39/57
f 22/39/57 16/23/56 19/26/58
