# This file uses centimeters as units for non-parametric coordinates.

v 0.197915 -0.050557 -0.342798
v -0.197915 -0.050557 -0.342798
v -0.395830 -0.050557 -0.000000
v -0.197915 -0.050557 0.342798
v 0.197915 -0.050557 0.342798
v 0.395830 -0.050557 0.000000
v 0.197915 1.723214 -0.342798
v -0.197915 1.723214 -0.342798
v -0.395830 1.723214 -0.000000
v -0.197915 1.723214 0.342798
v 0.197915 1.723214 0.342798
v 0.395830 1.723214 0.000000
vt 0.375000 0.312500
vt 0.416667 0.312500
vt 0.458333 0.312500
vt 0.500000 0.312500
vt 0.541667 0.312500
vt 0.583333 0.312500
vt 0.625000 0.312500
vt 0.375000 0.688440
vt 0.416667 0.688440
vt 0.458333 0.688440
vt 0.500000 0.688440
vt 0.541667 0.688440
vt 0.583333 0.688440
vt 0.625000 0.688440
vn 0.000000 0.000000 -1.000000
vn 0.000000 0.000000 -1.000000
vn 0.000000 0.000000 -1.000000
vn 0.000000 0.000000 -1.000000
vn -0.866025 0.000000 -0.500000
vn -0.866025 0.000000 -0.500000
vn -0.866025 0.000000 -0.500000
vn -0.866025 0.000000 -0.500000
vn -0.866025 0.000000 0.500000
vn -0.866025 0.000000 0.500000
vn -0.866025 0.000000 0.500000
vn -0.866025 0.000000 0.500000
vn -0.000000 0.000000 1.000000
vn -0.000000 0.000000 1.000000
vn -0.000000 0.000000 1.000000
vn 0.000000 0.000000 1.000000
vn 0.866025 0.000000 0.500000
vn 0.866025 0.000000 0.500000
vn 0.866025 0.000000 0.500000
vn 0.866025 0.000000 0.500000
vn 0.866025 0.000000 -0.500000
vn 0.866025 0.000000 -0.500000
vn 0.866025 0.000000 -0.500000
vn 0.866025 0.000000 -0.500000
f 1/1/1 2/2/2 7/8/3
f 7/8/3 2/2/2 8/9/4
f 2/2/5 3/3/6 8/9/7
f 8/9/7 3/3/6 9/10/8
f 3/3/9 4/4/10 9/10/11
f 9/10/11 4/4/10 10/11/12
f 4/4/13 5/5/14 10/11/15
f 10/11/15 5/5/14 11/12/16
f 5/5/17 6/6/18 11/12/19
f 11/12/19 6/6/18 12/13/20
f 6/6/21 1/7/22 12/13/23
f 12/13/23 1/7/22 7/14/24
