# This file uses centimeters as units for non-parametric coordinates.

v 0.000000 0.000000 -2.789968
v 2.018840 1.466773 -1.247712
v -0.771128 2.373289 -1.247712
v -2.495423 -0.000000 -1.247712
v -0.771128 -2.373288 -1.247712
v 2.018840 -1.466773 -1.247712
v 2.495423 0.000000 1.247712
v 0.771128 2.373288 1.247712
v -2.018840 1.466773 1.247712
v -2.018840 -1.466773 1.247712
v 0.771128 -2.373288 1.247712
v 0.000000 0.000000 2.789968
v -0.453258 1.394984 -2.373288
v 1.186644 0.862147 -2.373288
v 0.733386 2.257131 -1.466773
v -1.466773 -0.000000 -2.373288
v -1.920031 1.394984 -1.466773
v -0.453258 -1.394984 -2.373288
v -1.920031 -1.394984 -1.466773
v 1.186644 -0.862147 -2.373288
v 0.733386 -2.257132 -1.466773
v 2.373288 -0.000000 -1.466773
v 1.639902 2.257131 0.000000
v -0.000000 2.789968 0.000000
v -1.639902 2.257131 0.000000
v -2.653417 0.862147 0.000000
v -2.653417 -0.862148 0.000000
v -1.639902 -2.257131 0.000000
v 0.000000 -2.789968 0.000000
v 1.639902 -2.257131 0.000000
v 2.653417 -0.862148 0.000000
v 2.653417 0.862147 0.000000
v 1.920031 1.394984 1.466773
v -0.733386 2.257131 1.466773
v -2.373288 -0.000000 1.466773
v -0.733386 -2.257131 1.466773
v 1.920031 -1.394984 1.466773
v 1.466773 0.000000 2.373288
v 0.453258 1.394984 2.373288
v -1.186644 0.862147 2.373288
v -1.186644 -0.862148 2.373288
v 0.453258 -1.394984 2.373288
vt 1.000000 0.500000
vt 0.838104 0.676208
vt 0.088104 0.823792
vt 0.176208 0.500000
vt 0.088104 0.176208
vt 0.838104 0.323792
vt 0.676208 0.500000
vt 0.588104 0.823792
vt 0.338104 0.676208
vt 0.338104 0.323792
vt 0.588104 0.176208
vt 0.500000 0.500000
vt 0.030034 0.666667
vt 0.926208 0.600000
vt 0.926208 0.800000
vt 0.088104 0.500000
vt 0.146174 0.666667
vt 0.030034 0.333333
vt 0.146174 0.333333
vt 0.926208 0.400000
vt 0.926208 0.200000
vt 0.838104 0.500000
vt 0.750000 0.800000
vt 0.250000 1.000000
vt 0.250000 0.800000
vt 0.250000 0.600000
vt 0.250000 0.400000
vt 0.250000 0.200000
vt 0.750000 1.000000
vt 0.750000 0.200000
vt 0.750000 0.400000
vt 0.750000 0.600000
vt 0.646174 0.666667
vt 0.426208 0.800000
vt 0.338104 0.500000
vt 0.426208 0.200000
vt 0.646174 0.333333
vt 0.588104 0.500000
vt 0.530034 0.666667
vt 0.426208 0.600000
vt 0.426208 0.400000
vt 0.530034 0.333333
vt 1.030034 0.666667
vt 1.088104 0.823792
vt 1.088104 0.500000
vt 1.030034 0.333333
vt 1.088104 0.176208
vt 1.250000 1.000000
vn -0.000000 0.000000 -1.000000
vn -0.162460 0.500000 -0.850651
vn 0.425325 0.309017 -0.850651
vn -0.276393 0.850651 -0.447214
vn 0.262866 0.809017 -0.525731
vn 0.723607 0.525731 -0.447214
vn -0.525731 0.000000 -0.850651
vn -0.894427 -0.000000 -0.447214
vn -0.688191 0.500000 -0.525731
vn -0.162460 -0.500000 -0.850651
vn -0.276393 -0.850651 -0.447213
vn -0.688191 -0.500000 -0.525731
vn 0.425325 -0.309017 -0.850651
vn 0.723607 -0.525731 -0.447214
vn 0.262865 -0.809017 -0.525731
vn 0.850651 0.000000 -0.525731
vn 0.587785 0.809017 0.000000
vn 0.000000 1.000000 0.000000
vn 0.276393 0.850651 0.447214
vn -0.587785 0.809017 -0.000000
vn -0.951057 0.309017 0.000000
vn -0.723607 0.525731 0.447214
vn -0.951056 -0.309017 0.000000
vn -0.587785 -0.809017 0.000000
vn -0.723607 -0.525731 0.447214
vn 0.000000 -1.000000 0.000000
vn 0.587785 -0.809017 0.000000
vn 0.276393 -0.850651 0.447214
vn 0.951057 -0.309017 -0.000000
vn 0.951057 0.309017 0.000000
vn 0.894427 0.000000 0.447214
vn 0.688191 0.500000 0.525731
vn -0.262866 0.809017 0.525731
vn -0.850651 -0.000000 0.525731
vn -0.262865 -0.809017 0.525731
vn 0.688191 -0.500000 0.525731
vn 0.525731 0.000000 0.850651
vn 0.162460 0.500000 0.850651
vn -0.000000 -0.000000 1.000000
vn -0.425325 0.309017 0.850651
vn -0.425325 -0.309017 0.850651
vn 0.162460 -0.500000 0.850651
f 1/1/1 13/43/2 14/14/3
f 13/43/2 3/44/4 15/15/5
f 13/43/2 15/15/5 14/14/3
f 14/14/3 15/15/5 2/2/6
f 1/1/1 16/45/7 13/43/2
f 16/16/7 4/4/8 17/17/9
f 16/16/7 17/17/9 13/13/2
f 13/13/2 17/17/9 3/3/4
f 1/1/1 18/46/10 16/45/7
f 18/18/10 5/5/11 19/19/12
f 18/18/10 19/19/12 16/16/7
f 16/16/7 19/19/12 4/4/8
f 1/1/1 20/20/13 18/46/10
f 20/20/13 6/6/14 21/21/15
f 20/20/13 21/21/15 18/46/10
f 18/46/10 21/21/15 5/47/11
f 1/1/1 14/14/3 20/20/13
f 14/14/3 2/2/6 22/22/16
f 14/14/3 22/22/16 20/20/13
f 20/20/13 22/22/16 6/6/14
f 2/2/6 15/15/5 23/23/17
f 15/15/5 3/44/4 24/48/18
f 15/15/5 24/48/18 23/23/17
f 23/23/17 24/24/18 8/8/19
f 3/3/4 17/17/9 25/25/20
f 17/17/9 4/4/8 26/26/21
f 17/17/9 26/26/21 25/25/20
f 25/25/20 26/26/21 9/9/22
f 4/4/8 19/19/12 27/27/23
f 19/19/12 5/5/11 28/28/24
f 19/19/12 28/28/24 27/27/23
f 27/27/23 28/28/24 10/10/25
f 5/47/11 21/21/15 29/29/26
f 21/21/15 6/6/14 30/30/27
f 21/21/15 30/30/27 29/29/26
f 29/29/26 30/30/27 11/11/28
f 6/6/14 22/22/16 31/31/29
f 22/22/16 2/2/6 32/32/30
f 22/22/16 32/32/30 31/31/29
f 31/31/29 32/32/30 7/7/31
f 2/2/6 23/23/17 32/32/30
f 23/23/17 8/8/19 33/33/32
f 23/23/17 33/33/32 32/32/30
f 32/32/30 33/33/32 7/7/31
f 3/3/4 25/25/20 24/24/18
f 25/25/20 9/9/22 34/34/33
f 25/25/20 34/34/33 24/24/18
f 24/24/18 34/34/33 8/8/19
f 4/4/8 27/27/23 26/26/21
f 27/27/23 10/10/25 35/35/34
f 27/27/23 35/35/34 26/26/21
f 26/26/21 35/35/34 9/9/22
f 5/47/11 29/29/26 28/28/24
f 29/29/26 11/11/28 36/36/35
f 29/29/26 36/36/35 28/28/24
f 28/28/24 36/36/35 10/10/25
f 6/6/14 31/31/29 30/30/27
f 31/31/29 7/7/31 37/37/36
f 31/31/29 37/37/36 30/30/27
f 30/30/27 37/37/36 11/11/28
f 7/7/31 33/33/32 38/38/37
f 33/33/32 8/8/19 39/39/38
f 33/33/32 39/39/38 38/38/37
f 38/38/37 39/39/38 12/12/39
f 8/8/19 34/34/33 39/39/38
f 34/34/33 9/9/22 40/40/40
f 34/34/33 40/40/40 39/39/38
f 39/39/38 40/40/40 12/12/39
f 9/9/22 35/35/34 40/40/40
f 35/35/34 10/10/25 41/41/41
f 35/35/34 41/41/41 40/40/40
f 40/40/40 41/41/41 12/12/39
f 10/10/25 36/36/35 41/41/41
f 36/36/35 11/11/28 42/42/42
f 36/36/35 42/42/42 41/41/41
f 41/41/41 42/42/42 12/12/39
f 11/11/28 37/37/36 42/42/42
f 37/37/36 7/7/31 38/38/37
f 37/37/36 38/38/37 42/42/42
f 42/42/42 38/38/37 12/12/39
v 2.792183 -0.362225 -2.405501
v 4.291168 0.726851 -1.260379
v 2.219622 1.399937 -1.260379
v 0.939336 -0.362225 -1.260379
v 2.219622 -2.124386 -1.260379
v 4.291167 -1.451301 -1.260379
v 4.645030 -0.362225 0.592468
v 3.364744 1.399937 0.592468
v 1.293199 0.726851 0.592468
v 1.293199 -1.451301 0.592468
v 3.364745 -2.124386 0.592468
v 2.792183 -0.362225 1.737590
v 2.455640 0.673548 -2.096118
v 3.673264 0.277918 -2.096118
v 3.336721 1.313691 -1.423032
v 1.703107 -0.362225 -2.096118
v 1.366564 0.673548 -1.423032
v 2.455640 -1.397997 -2.096118
v 1.366564 -1.397997 -1.423032
v 3.673264 -1.002367 -2.096118
v 3.336721 -2.038140 -1.423032
v 4.554345 -0.362225 -1.423032
v 4.009807 1.313691 -0.333956
v 2.792183 1.709321 -0.333956
v 1.574559 1.313691 -0.333956
v 0.822026 0.277918 -0.333956
v 0.822027 -1.002368 -0.333956
v 1.574559 -2.038140 -0.333956
v 2.792183 -2.433770 -0.333956
v 4.009807 -2.038140 -0.333956
v 4.762340 -1.002367 -0.333956
v 4.762340 0.277918 -0.333956
v 4.217802 0.673548 0.755120
v 2.247645 1.313691 0.755120
v 1.030021 -0.362225 0.755120
v 2.247645 -2.038140 0.755120
v 4.217802 -1.397997 0.755120
v 3.881259 -0.362225 1.428206
v 3.128726 0.673548 1.428206
v 1.911102 0.277918 1.428206
v 1.911102 -1.002367 1.428206
v 3.128726 -1.397997 1.428206
vt 1.000000 0.500000
vt 0.838104 0.676208
vt 0.088104 0.823792
vt 0.176208 0.500000
vt 0.088104 0.176208
vt 0.838104 0.323792
vt 0.676208 0.500000
vt 0.588104 0.823792
vt 0.338104 0.676208
vt 0.338104 0.323792
vt 0.588104 0.176208
vt 0.500000 0.500000
vt 0.030034 0.666667
vt 0.926208 0.600000
vt 0.926208 0.800000
vt 0.088104 0.500000
vt 0.146174 0.666667
vt 0.030034 0.333333
vt 0.146174 0.333333
vt 0.926208 0.400000
vt 0.926208 0.200000
vt 0.838104 0.500000
vt 0.750000 0.800000
vt 0.250000 1.000000
vt 0.250000 0.800000
vt 0.250000 0.600000
vt 0.250000 0.400000
vt 0.250000 0.200000
vt 0.750000 1.000000
vt 0.750000 0.200000
vt 0.750000 0.400000
vt 0.750000 0.600000
vt 0.646174 0.666667
vt 0.426208 0.800000
vt 0.338104 0.500000
vt 0.426208 0.200000
vt 0.646174 0.333333
vt 0.588104 0.500000
vt 0.530034 0.666667
vt 0.426208 0.600000
vt 0.426208 0.400000
vt 0.530034 0.333333
vt 1.030034 0.666667
vt 1.088104 0.823792
vt 1.088104 0.500000
vt 1.030034 0.333333
vt 1.088104 0.176208
vt 1.250000 1.000000
vn -0.000000 0.000000 -1.000000
vn -0.162460 0.500000 -0.850651
vn 0.425325 0.309017 -0.850651
vn -0.276393 0.850651 -0.447214
vn 0.262866 0.809017 -0.525731
vn 0.723607 0.525731 -0.447214
vn -0.525731 0.000000 -0.850651
vn -0.894427 -0.000000 -0.447214
vn -0.688191 0.500000 -0.525731
vn -0.162460 -0.500000 -0.850651
vn -0.276393 -0.850651 -0.447213
vn -0.688191 -0.500000 -0.525731
vn 0.425325 -0.309017 -0.850651
vn 0.723607 -0.525731 -0.447214
vn 0.262865 -0.809017 -0.525731
vn 0.850651 0.000000 -0.525731
vn 0.587785 0.809017 0.000000
vn 0.000000 1.000000 0.000000
vn 0.276393 0.850651 0.447214
vn -0.587785 0.809017 -0.000000
vn -0.951056 0.309017 0.000000
vn -0.723607 0.525731 0.447214
vn -0.951056 -0.309017 0.000000
vn -0.587785 -0.809017 0.000000
vn -0.723607 -0.525731 0.447214
vn 0.000000 -1.000000 0.000000
vn 0.587785 -0.809017 0.000000
vn 0.276393 -0.850651 0.447214
vn 0.951056 -0.309017 -0.000000
vn 0.951056 0.309017 0.000000
vn 0.894427 0.000000 0.447214
vn 0.688191 0.500000 0.525731
vn -0.262866 0.809017 0.525731
vn -0.850651 -0.000000 0.525731
vn -0.262865 -0.809017 0.525731
vn 0.688191 -0.500000 0.525731
vn 0.525731 0.000000 0.850651
vn 0.162460 0.500000 0.850651
vn -0.000000 -0.000000 1.000000
vn -0.425325 0.309017 0.850651
vn -0.425325 -0.309017 0.850651
vn 0.162460 -0.500000 0.850651
f 43/49/43 55/91/44 56/62/45
f 55/91/44 45/92/46 57/63/47
f 55/91/44 57/63/47 56/62/45
f 56/62/45 57/63/47 44/50/48
f 43/49/43 58/93/49 55/91/44
f 58/64/49 46/52/50 59/65/51
f 58/64/49 59/65/51 55/61/44
f 55/61/44 59/65/51 45/51/46
f 43/49/43 60/94/52 58/93/49
f 60/66/52 47/53/53 61/67/54
f 60/66/52 61/67/54 58/64/49
f 58/64/49 61/67/54 46/52/50
f 43/49/43 62/68/55 60/94/52
f 62/68/55 48/54/56 63/69/57
f 62/68/55 63/69/57 60/94/52
f 60/94/52 63/69/57 47/95/53
f 43/49/43 56/62/45 62/68/55
f 56/62/45 44/50/48 64/70/58
f 56/62/45 64/70/58 62/68/55
f 62/68/55 64/70/58 48/54/56
f 44/50/48 57/63/47 65/71/59
f 57/63/47 45/92/46 66/96/60
f 57/63/47 66/96/60 65/71/59
f 65/71/59 66/72/60 50/56/61
f 45/51/46 59/65/51 67/73/62
f 59/65/51 46/52/50 68/74/63
f 59/65/51 68/74/63 67/73/62
f 67/73/62 68/74/63 51/57/64
f 46/52/50 61/67/54 69/75/65
f 61/67/54 47/53/53 70/76/66
f 61/67/54 70/76/66 69/75/65
f 69/75/65 70/76/66 52/58/67
f 47/95/53 63/69/57 71/77/68
f 63/69/57 48/54/56 72/78/69
f 63/69/57 72/78/69 71/77/68
f 71/77/68 72/78/69 53/59/70
f 48/54/56 64/70/58 73/79/71
f 64/70/58 44/50/48 74/80/72
f 64/70/58 74/80/72 73/79/71
f 73/79/71 74/80/72 49/55/73
f 44/50/48 65/71/59 74/80/72
f 65/71/59 50/56/61 75/81/74
f 65/71/59 75/81/74 74/80/72
f 74/80/72 75/81/74 49/55/73
f 45/51/46 67/73/62 66/72/60
f 67/73/62 51/57/64 76/82/75
f 67/73/62 76/82/75 66/72/60
f 66/72/60 76/82/75 50/56/61
f 46/52/50 69/75/65 68/74/63
f 69/75/65 52/58/67 77/83/76
f 69/75/65 77/83/76 68/74/63
f 68/74/63 77/83/76 51/57/64
f 47/95/53 71/77/68 70/76/66
f 71/77/68 53/59/70 78/84/77
f 71/77/68 78/84/77 70/76/66
f 70/76/66 78/84/77 52/58/67
f 48/54/56 73/79/71 72/78/69
f 73/79/71 49/55/73 79/85/78
f 73/79/71 79/85/78 72/78/69
f 72/78/69 79/85/78 53/59/70
f 49/55/73 75/81/74 80/86/79
f 75/81/74 50/56/61 81/87/80
f 75/81/74 81/87/80 80/86/79
f 80/86/79 81/87/80 54/60/81
f 50/56/61 76/82/75 81/87/80
f 76/82/75 51/57/64 82/88/82
f 76/82/75 82/88/82 81/87/80
f 81/87/80 82/88/82 54/60/81
f 51/57/64 77/83/76 82/88/82
f 77/83/76 52/58/67 83/89/83
f 77/83/76 83/89/83 82/88/82
f 82/88/82 83/89/83 54/60/81
f 52/58/67 78/84/77 83/89/83
f 78/84/77 53/59/70 84/90/84
f 78/84/77 84/90/84 83/89/83
f 83/89/83 84/90/84 54/60/81
f 53/59/70 79/85/78 84/90/84
f 79/85/78 49/55/73 80/86/79
f 79/85/78 80/86/79 84/90/84
f 84/90/84 80/86/79 54/60/81
v -2.208719 -0.362225 -0.919899
v -0.709735 0.726851 0.225224
v -2.781280 1.399937 0.225223
v -4.061566 -0.362225 0.225223
v -2.781280 -2.124386 0.225224
v -0.709735 -1.451301 0.225224
v -0.355873 -0.362225 2.078070
v -1.636158 1.399937 2.078070
v -3.707704 0.726851 2.078070
v -3.707703 -1.451301 2.078070
v -1.636158 -2.124386 2.078070
v -2.208719 -0.362225 3.223192
v -2.545262 0.673548 -0.610515
v -1.327638 0.277918 -0.610515
v -1.664181 1.313691 0.062571
v -3.297795 -0.362225 -0.610515
v -3.634338 0.673548 0.062571
v -2.545262 -1.397997 -0.610515
v -3.634338 -1.397997 0.062571
v -1.327638 -1.002367 -0.610515
v -1.664181 -2.038140 0.062571
v -0.446557 -0.362225 0.062571
v -0.991095 1.313691 1.151647
v -2.208719 1.709321 1.151647
v -3.426343 1.313691 1.151647
v -4.178876 0.277918 1.151647
v -4.178876 -1.002368 1.151647
v -3.426343 -2.038140 1.151647
v -2.208719 -2.433770 1.151647
v -0.991095 -2.038140 1.151647
v -0.238562 -1.002367 1.151647
v -0.238562 0.277918 1.151647
v -0.783101 0.673548 2.240723
v -2.753257 1.313691 2.240723
v -3.970881 -0.362225 2.240723
v -2.753257 -2.038140 2.240723
v -0.783100 -1.397997 2.240723
v -1.119643 -0.362225 2.913809
v -1.872176 0.673548 2.913809
v -3.089800 0.277918 2.913809
v -3.089800 -1.002367 2.913809
v -1.872176 -1.397997 2.913809
vt 1.000000 0.500000
vt 0.838104 0.676208
vt 0.088104 0.823792
vt 0.176208 0.500000
vt 0.088104 0.176208
vt 0.838104 0.323792
vt 0.676208 0.500000
vt 0.588104 0.823792
vt 0.338104 0.676208
vt 0.338104 0.323792
vt 0.588104 0.176208
vt 0.500000 0.500000
vt 0.030034 0.666667
vt 0.926208 0.600000
vt 0.926208 0.800000
vt 0.088104 0.500000
vt 0.146174 0.666667
vt 0.030034 0.333333
vt 0.146174 0.333333
vt 0.926208 0.400000
vt 0.926208 0.200000
vt 0.838104 0.500000
vt 0.750000 0.800000
vt 0.250000 1.000000
vt 0.250000 0.800000
vt 0.250000 0.600000
vt 0.250000 0.400000
vt 0.250000 0.200000
vt 0.750000 1.000000
vt 0.750000 0.200000
vt 0.750000 0.400000
vt 0.750000 0.600000
vt 0.646174 0.666667
vt 0.426208 0.800000
vt 0.338104 0.500000
vt 0.426208 0.200000
vt 0.646174 0.333333
vt 0.588104 0.500000
vt 0.530034 0.666667
vt 0.426208 0.600000
vt 0.426208 0.400000
vt 0.530034 0.333333
vt 1.030034 0.666667
vt 1.088104 0.823792
vt 1.088104 0.500000
vt 1.030034 0.333333
vt 1.088104 0.176208
vt 1.250000 1.000000
vn -0.000000 0.000000 -1.000000
vn -0.162460 0.500000 -0.850651
vn 0.425325 0.309017 -0.850651
vn -0.276393 0.850651 -0.447214
vn 0.262866 0.809017 -0.525731
vn 0.723607 0.525731 -0.447214
vn -0.525731 0.000000 -0.850651
vn -0.894427 -0.000000 -0.447214
vn -0.688191 0.500000 -0.525731
vn -0.162460 -0.500000 -0.850651
vn -0.276393 -0.850651 -0.447213
vn -0.688191 -0.500000 -0.525731
vn 0.425325 -0.309017 -0.850651
vn 0.723607 -0.525731 -0.447214
vn 0.262865 -0.809017 -0.525731
vn 0.850651 0.000000 -0.525731
vn 0.587785 0.809017 0.000000
vn 0.000000 1.000000 0.000000
vn 0.276393 0.850651 0.447214
vn -0.587785 0.809017 -0.000000
vn -0.951056 0.309017 0.000000
vn -0.723607 0.525731 0.447214
vn -0.951056 -0.309017 0.000000
vn -0.587785 -0.809017 0.000000
vn -0.723607 -0.525731 0.447214
vn 0.000000 -1.000000 0.000000
vn 0.587785 -0.809017 0.000000
vn 0.276393 -0.850651 0.447214
vn 0.951056 -0.309017 -0.000000
vn 0.951056 0.309017 0.000000
vn 0.894427 0.000000 0.447214
vn 0.688191 0.500000 0.525731
vn -0.262866 0.809017 0.525731
vn -0.850651 -0.000000 0.525731
vn -0.262865 -0.809017 0.525731
vn 0.688191 -0.500000 0.525731
vn 0.525731 0.000000 0.850651
vn 0.162460 0.500000 0.850651
vn -0.000000 -0.000000 1.000000
vn -0.425325 0.309017 0.850651
vn -0.425325 -0.309017 0.850651
vn 0.162460 -0.500000 0.850651
f 85/97/85 97/139/86 98/110/87
f 97/139/86 87/140/88 99/111/89
f 97/139/86 99/111/89 98/110/87
f 98/110/87 99/111/89 86/98/90
f 85/97/85 100/141/91 97/139/86
f 100/112/91 88/100/92 101/113/93
f 100/112/91 101/113/93 97/109/86
f 97/109/86 101/113/93 87/99/88
f 85/97/85 102/142/94 100/141/91
f 102/114/94 89/101/95 103/115/96
f 102/114/94 103/115/96 100/112/91
f 100/112/91 103/115/96 88/100/92
f 85/97/85 104/116/97 102/142/94
f 104/116/97 90/102/98 105/117/99
f 104/116/97 105/117/99 102/142/94
f 102/142/94 105/117/99 89/143/95
f 85/97/85 98/110/87 104/116/97
f 98/110/87 86/98/90 106/118/100
f 98/110/87 106/118/100 104/116/97
f 104/116/97 106/118/100 90/102/98
f 86/98/90 99/111/89 107/119/101
f 99/111/89 87/140/88 108/144/102
f 99/111/89 108/144/102 107/119/101
f 107/119/101 108/120/102 92/104/103
f 87/99/88 101/113/93 109/121/104
f 101/113/93 88/100/92 110/122/105
f 101/113/93 110/122/105 109/121/104
f 109/121/104 110/122/105 93/105/106
f 88/100/92 103/115/96 111/123/107
f 103/115/96 89/101/95 112/124/108
f 103/115/96 112/124/108 111/123/107
f 111/123/107 112/124/108 94/106/109
f 89/143/95 105/117/99 113/125/110
f 105/117/99 90/102/98 114/126/111
f 105/117/99 114/126/111 113/125/110
f 113/125/110 114/126/111 95/107/112
f 90/102/98 106/118/100 115/127/113
f 106/118/100 86/98/90 116/128/114
f 106/118/100 116/128/114 115/127/113
f 115/127/113 116/128/114 91/103/115
f 86/98/90 107/119/101 116/128/114
f 107/119/101 92/104/103 117/129/116
f 107/119/101 117/129/116 116/128/114
f 116/128/114 117/129/116 91/103/115
f 87/99/88 109/121/104 108/120/102
f 109/121/104 93/105/106 118/130/117
f 109/121/104 118/130/117 108/120/102
f 108/120/102 118/130/117 92/104/103
f 88/100/92 111/123/107 110/122/105
f 111/123/107 94/106/109 119/131/118
f 111/123/107 119/131/118 110/122/105
f 110/122/105 119/131/118 93/105/106
f 89/143/95 113/125/110 112/124/108
f 113/125/110 95/107/112 120/132/119
f 113/125/110 120/132/119 112/124/108
f 112/124/108 120/132/119 94/106/109
f 90/102/98 115/127/113 114/126/111
f 115/127/113 91/103/115 121/133/120
f 115/127/113 121/133/120 114/126/111
f 114/126/111 121/133/120 95/107/112
f 91/103/115 117/129/116 122/134/121
f 117/129/116 92/104/103 123/135/122
f 117/129/116 123/135/122 122/134/121
f 122/134/121 123/135/122 96/108/123
f 92/104/103 118/130/117 123/135/122
f 118/130/117 93/105/106 124/136/124
f 118/130/117 124/136/124 123/135/122
f 123/135/122 124/136/124 96/108/123
f 93/105/106 119/131/118 124/136/124
f 119/131/118 94/106/109 125/137/125
f 119/131/118 125/137/125 124/136/124
f 124/136/124 125/137/125 96/108/123
f 94/106/109 120/132/119 125/137/125
f 120/132/119 95/107/112 126/138/126
f 120/132/119 126/138/126 125/137/125
f 125/137/125 126/138/126 96/108/123
f 95/107/112 121/133/120 126/138/126
f 121/133/120 91/103/115 122/134/121
f 121/133/120 122/134/121 126/138/126
f 126/138/126 122/134/121 96/108/123
