# This file uses centimeters as units for non-parametric coordinates.

v 0.623490 2.837989 0.812717
v -0.222521 2.837989 1.005813
v -0.900969 2.837989 0.464769
v -0.900969 2.837989 -0.402998
v -0.222521 2.837989 -0.944042
v 0.623490 2.837989 -0.750946
v 1.000000 2.837989 0.030885
v 0.000000 -0.125581 0.030885
vt 0.250000 0.500000
vt 0.321429 0.500000
vt 0.392857 0.500000
vt 0.464286 0.500000
vt 0.535714 0.500000
vt 0.607143 0.500000
vt 0.678571 0.500000
vt 0.750000 0.500000
vt 0.500000 1.000000
vn 0.212900 -0.290870 0.932775
vn 0.212900 -0.290870 0.932775
vn 0.212900 -0.290870 0.932775
vn -0.596532 -0.290870 0.748027
vn -0.596532 -0.290870 0.748027
vn -0.596532 -0.290870 0.748027
vn -0.956763 -0.290870 0.000000
vn -0.956763 -0.290870 0.000000
vn -0.956763 -0.290870 0.000000
vn -0.596532 -0.290870 -0.748027
vn -0.596532 -0.290870 -0.748027
vn -0.596532 -0.290870 -0.748027
vn 0.212900 -0.290870 -0.932775
vn 0.212900 -0.290870 -0.932775
vn 0.212900 -0.290870 -0.932775
vn 0.862013 -0.290870 -0.415124
vn 0.862013 -0.290870 -0.415124
vn 0.862013 -0.290870 -0.415124
vn 0.862013 -0.290870 0.415124
vn 0.862013 -0.290870 0.415124
vn 0.862013 -0.290870 0.415124
f 1/1/1 2/2/2 8/9/3
f 2/2/4 3/3/5 8/9/6
f 3/3/7 4/4/8 8/9/9
f 4/4/10 5/5/11 8/9/12
f 5/5/13 6/6/14 8/9/15
f 6/6/16 7/7/17 8/9/18
f 7/7/19 1/8/20 8/9/21
